<svg width="154" height="26" viewBox="0 0 154 26" fill="none" xmlns="http://www.w3.org/2000/svg">
<path d="M53.1313 7.27457C52.5658 6.79367 51.9071 6.43481 51.1965 6.22049C50.4134 5.98928 49.6003 5.87561 48.7839 5.88319C47.8863 5.87405 46.9949 6.03294 46.1557 6.35166C45.4018 6.63216 44.7038 7.04461 44.0945 7.56972C43.5339 8.05556 43.0589 8.63197 42.689 9.27497C42.5704 9.48016 42.4656 9.69301 42.3752 9.91211C42.3119 9.63225 42.2257 9.35805 42.1175 9.09227C41.8412 8.39763 41.4027 7.77918 40.8386 7.28862C40.2755 6.80683 39.6182 6.44782 38.9085 6.23454C38.1238 6.00335 37.3092 5.88968 36.4912 5.89724C35.5706 5.88635 34.6558 6.04516 33.7928 6.36572C33.0348 6.64418 32.3357 7.06208 31.7315 7.59782C31.1802 8.09052 30.7147 8.67158 30.3542 9.31715C30.185 9.63106 30.0424 9.95857 29.9279 10.2963V6.22049H26.2363V20.3452H29.9279V11.9359C30.0856 11.5459 30.3073 11.1849 30.5837 10.8678C31.1185 10.2588 31.7763 9.77023 32.5138 9.43427C33.3497 9.04547 34.2624 8.85011 35.1841 8.86272C36.4896 8.86272 37.4266 9.14224 37.995 9.70129C38.5634 10.2603 38.8523 11.1364 38.8616 12.3295V20.317H42.5532V11.6783C42.5532 11.5471 42.5532 11.43 42.5532 11.3035C42.655 11.1527 42.7644 11.0073 42.8811 10.8678C43.4168 10.2599 44.0744 9.77145 44.8112 9.43427C45.6485 9.04493 46.5629 8.84957 47.4862 8.86272C48.7917 8.86272 49.738 9.14224 50.3251 9.70129C50.9123 10.2603 51.2059 11.1364 51.2059 12.3295V20.317H54.9021V11.6783C54.9216 10.789 54.7623 9.9048 54.4336 9.07822C54.1441 8.38478 53.6984 7.76753 53.1313 7.27457Z" fill="white"/>
<path d="M65.2781 16.5655L60.6027 6.19336H56.6816L63.4651 20.1868L60.3451 26.0007H64.1819L73.9589 6.19336H70.0096L65.2781 16.5655Z" fill="white"/>
<path d="M92.1172 6.19336H87.6245L83.7174 10.7704L79.5012 6.19336H74.9805L81.5859 13.1737L74.9805 20.318H79.5012L83.6378 15.4224L87.9946 20.318H92.5154L85.774 13.0051L92.1172 6.19336Z" fill="white"/>
<path d="M107.146 6.76393C105.688 6.12979 104.107 5.8289 102.518 5.88319C100.887 5.8454 99.267 6.14527 97.7582 6.76393C96.4783 7.28914 95.3771 8.17239 94.5866 9.30777C93.809 10.4908 93.4133 11.8841 93.4529 13.2992C93.4133 14.7141 93.8198 16.1055 94.6147 17.2766C95.435 18.4056 96.5593 19.2781 97.8565 19.7924C99.3747 20.3947 100.997 20.6893 102.63 20.659C104.022 20.6949 105.409 20.4726 106.72 20.0032C107.741 19.635 108.655 19.0202 109.381 18.2136C110.02 17.4833 110.437 16.5864 110.585 15.6276H107.006C106.725 16.3314 106.18 16.8979 105.488 17.2063C104.57 17.6412 103.561 17.85 102.546 17.8154C101.605 17.8396 100.67 17.6656 99.8007 17.3047C99.0853 16.9982 98.4597 16.5146 97.983 15.8993C97.5463 15.3269 97.2669 14.6502 97.1726 13.9364H110.641C110.788 12.3868 110.53 10.8257 109.892 9.40615C109.303 8.23891 108.335 7.30695 107.146 6.76393ZM97.374 11.7907C97.6443 10.884 98.229 10.1033 99.023 9.58886C100.026 9.01217 101.161 8.70401 102.318 8.69417C103.475 8.68432 104.616 8.97311 105.628 9.53265C106.01 9.78172 106.33 10.1145 106.564 10.5058C106.798 10.8971 106.939 11.3365 106.978 11.7907H97.374Z" fill="white"/>
<path d="M117.372 0.509766H113.681V20.3171H117.372V0.509766Z" fill="white"/>
<path d="M125.074 0.509766H121.383V20.3171H125.074V0.509766Z" fill="white"/>
<path d="M132.72 6.19727H129.028V20.3219H132.72V6.19727Z" fill="white"/>
<path d="M133.033 0H128.742V3.23719H133.033V0Z" fill="white"/>
<path d="M149.913 6.19375V10.4382C149.827 10.12 149.722 9.80716 149.599 9.50121C149.169 8.41083 148.409 7.4821 147.425 6.84492C146.238 6.13893 144.87 5.79838 143.49 5.8658C142.112 5.84537 140.75 6.16731 139.527 6.80276C138.387 7.39119 137.429 8.28068 136.758 9.37473C136.09 10.5559 135.739 11.8898 135.739 13.2467C135.739 14.6037 136.09 15.9375 136.758 17.1187C137.414 18.212 138.357 19.1047 139.485 19.7C140.66 20.3297 141.975 20.652 143.307 20.637C144.415 20.667 145.514 20.4376 146.517 19.967C147.364 19.5557 148.102 18.9506 148.671 18.2009C149.214 17.4827 149.628 16.6759 149.894 15.8163L149.922 15.7086V16.6783C149.922 17.2311 149.922 17.7886 149.979 18.3555C150.035 18.9223 150.082 19.5782 150.175 20.3184H153.614V6.19375H149.913ZM149.257 15.6289C148.801 16.3308 148.149 16.8843 147.383 17.2218C146.47 17.6206 145.48 17.8141 144.483 17.7886C143.584 17.8081 142.693 17.6138 141.883 17.2218C141.165 16.8685 140.56 16.3217 140.136 15.643C139.708 14.9278 139.492 14.1057 139.513 13.2725C139.487 12.6645 139.59 12.0579 139.815 11.4927C140.04 10.9274 140.383 10.4163 140.82 9.99311C141.691 9.16859 142.912 8.75633 144.483 8.75633C145.471 8.73324 146.453 8.91177 147.369 9.28102C148.132 9.59689 148.784 10.1316 149.243 10.8176C149.707 11.5521 149.94 12.4088 149.913 13.2772C149.927 14.1081 149.699 14.9251 149.257 15.6289Z" fill="white"/>
<path d="M18.6093 19.5588L20.4363 16.2794L18.3657 12.7471L20.4363 9.29909L18.5624 5.82765H14.4024L12.2943 2.30469H8.47624L6.41497 5.86981H2.3299L0.385742 9.21944L2.57819 12.7471L0.385742 16.4434L2.32521 19.6291H6.41497L8.47624 23.1942H12.3739L14.3509 19.54L18.6093 19.5588ZM10.3595 20.7534L8.01715 16.6402H3.44486L5.85749 12.8314L3.44955 8.94304H7.9984L10.3408 4.93285L12.5285 8.89619H17.2132L14.8053 12.7705L17.2132 16.6402H12.5004L10.3595 20.7534Z" fill="white"/>
</svg>
